# xmcd
#
# Track frame offsets:
#	150
#	10090
#	20820
#	32190
#	45010
#	56205
#	66580
#	75757
#	85790
#	96697
#	106255
#	115592
#	125817
#	134305
#	146962
#	158072
#	171125
#	184075
#	195455
#	204435
#	215557
#	228102
#	237702
#	249552
#	259892
#	271022
#	283665
#
# Disc length: 3937 seconds
#
# Revision: 1
# Processed by: cddbd v1.5PL3 Copyright (c) Steve Scherf et al.
# Submitted via: audiograbber 1.80
#
DISCID=850f5f1b
DTITLE=anita carter - Appalachian Angel Her Recordings 1950-1972 and 1996 disc 2
DYEAR=1900
DGENRE=
TTITLE0=A Tear Fell
TTITLE1=One Heartache At A Time
TTITLE2=He's A Real Gone Guy
TTITLE3=Believe It Or Not
TTITLE4=Maybe
TTITLE5=Do You Remember
TTITLE6=If I Had A Needle And Thread
TTITLE7=Blue Doll
TTITLE8=Go Away, Johnnie
TTITLE9=Mama Don't Cry At My Wedding
TTITLE10=Tryin' To Forget About You
TTITLE11=That's All I Want From You
TTITLE12=Moon Girl
TTITLE13=If Today Were Yesterday (& Hank Snow)
TTITLE14=For Sale (& Hank Snow)
TTITLE15=Rose Of Old Monterey (& Hank Snow)
TTITLE16=My Adobe Hacienda (& Hank Snow)
TTITLE17=I Never Will Marry (& Hank Snow)
TTITLE18=Mockin' Bird Hill (& Hank Snow)
TTITLE19=No Letter Today (& Hank Snow)
TTITLE20=I Dreamed Of An Old Love Affair (& Hank Snow)
TTITLE21=If It's Wrong To Love You (& Hank Snow)
TTITLE22=When My Blue Moon Turn To Gold Again (& Hank Snow)
TTITLE23=Promised To John (& Hank Snow)
TTITLE24=Let's Pretend (& Hank Snow)
TTITLE25=A Pair Of Broken Hearts (& Hank Snow)
TTITLE26=Another Man Done Gone (& Johnny Cash)
EXTD=
EXTT0=
EXTT1=
EXTT2=
EXTT3=
EXTT4=
EXTT5=
EXTT6=
EXTT7=
EXTT8=
EXTT9=
EXTT10=
EXTT11=
EXTT12=
EXTT13=
EXTT14=
EXTT15=
EXTT16=
EXTT17=
EXTT18=
EXTT19=
EXTT20=
EXTT21=
EXTT22=
EXTT23=
EXTT24=
EXTT25=
EXTT26=
PLAYORDER=
